<?xml version="1.0" encoding="utf-8"?>
<!-- Generator: Adobe Illustrator 16.0.0, SVG Export Plug-In . SVG Version: 6.00 Build 0)  -->
<!DOCTYPE svg PUBLIC "-//W3C//DTD SVG 1.1//EN" "http://www.w3.org/Graphics/SVG/1.1/DTD/svg11.dtd">
<svg version="1.1" id="圖層_1" xmlns="http://www.w3.org/2000/svg" xmlns:xlink="http://www.w3.org/1999/xlink" x="0px" y="0px"
	 width="140.667px" height="90.666px" viewBox="0 0 140.667 90.666" enable-background="new 0 0 140.667 90.666"
	 xml:space="preserve">
<g>
	<g>
		<text transform="matrix(1 0 0 1 45.8252 70.623)" fill="#2EA7E0" font-family="'ArialMT'" font-size="9">Contact Us</text>
	</g>
	<g>
		<path fill="#2EA7E0" d="M82.371,33.877H80.68c0-5.521-4.49-10.008-10.007-10.008l-0.002-1.69
			C77.124,22.175,82.371,27.425,82.371,33.877z M70.671,25.097l-0.001,1.689c3.913,0,7.09,3.181,7.088,7.09l1.691-0.001
			C79.449,29.035,75.515,25.097,70.671,25.097z M70.334,17.12c-9.146,0-16.584,7.438-16.584,16.585
			c0,9.144,7.438,16.582,16.584,16.582c0.564,0,1.022-0.457,1.022-1.021c0-0.568-0.458-1.026-1.022-1.026
			c-8.017,0-14.537-6.521-14.537-14.534c0-8.018,6.521-14.538,14.537-14.538c8.018,0,14.536,6.522,14.536,14.538
			c0,3.349-1.783,6.668-4.335,8.075c-0.928,0.51-1.932,0.763-3.004,0.772c0.644-0.383,1.2-0.899,1.615-1.552
			c0.081-0.123,0.189-0.231,0.242-0.364c0.332-0.802,0.362-1.71,0.562-2.557c0.248-1.081-4.729-3.192-5.161-1.842
			c-0.157,0.499-0.396,2.079-0.711,2.495c-0.277,0.372-0.967,0.195-1.397-0.17c-1.135-0.967-2.4-2.387-3.511-3.51l0.001-0.002
			c-0.027-0.029-0.062-0.061-0.093-0.093c-0.031-0.03-0.062-0.063-0.095-0.093v0.001c-1.123-1.113-2.543-2.376-3.509-3.513
			c-0.366-0.431-0.543-1.118-0.171-1.397c0.416-0.316,1.995-0.552,2.496-0.71c1.346-0.431-0.762-5.409-1.845-5.162
			c-0.845,0.198-1.753,0.23-2.554,0.562c-0.136,0.058-0.243,0.162-0.365,0.243c-2.842,1.801-3.209,6.175-0.434,9.435
			c1.056,1.246,2.159,2.452,3.295,3.63l-0.007,0.004c0.031,0.032,0.064,0.062,0.097,0.093c0.03,0.03,0.059,0.062,0.089,0.096
			l0.006-0.006c1.178,1.135,2.574,2.807,4.843,4.32c4.775,3.189,8.438,2.3,10.599,1.115c3.726-2.053,5.393-6.436,5.393-9.869
			C86.917,24.559,79.478,17.12,70.334,17.12z"/>
	</g>
</g>
</svg>
