<?xml version="1.0" encoding="utf-8"?>
<!-- Generator: Adobe Illustrator 16.0.0, SVG Export Plug-In . SVG Version: 6.00 Build 0)  -->
<!DOCTYPE svg PUBLIC "-//W3C//DTD SVG 1.1//EN" "http://www.w3.org/Graphics/SVG/1.1/DTD/svg11.dtd">
<svg version="1.1" id="圖層_1" xmlns="http://www.w3.org/2000/svg" xmlns:xlink="http://www.w3.org/1999/xlink" x="0px" y="0px"
	 width="99px" height="31.333px" viewBox="0 0 99 31.333" enable-background="new 0 0 99 31.333" xml:space="preserve">
<g>
	<g>
		<path fill="#2EA7E0" d="M30.907,16.62C30.888,16.547,28.975,9.309,20,9.309c-8.977,0-10.891,7.239-10.909,7.311l-0.021,0.085
			l0.021,0.086c0.019,0.073,1.933,7.311,10.909,7.311c8.976,0,10.889-7.238,10.907-7.311l0.021-0.086L30.907,16.62z M9.798,16.707
			c0.184-0.61,1.486-4.384,5.863-5.98c-1.849,1.345-3.06,3.521-3.06,5.978c0,2.476,1.226,4.664,3.097,6.007
			C11.255,21.142,9.986,17.36,9.798,16.707z M13.307,16.705c0-3.689,3.001-6.691,6.692-6.691c3.69,0,6.692,3.002,6.692,6.691
			c0,3.69-3.002,6.692-6.692,6.692C16.308,23.397,13.307,20.396,13.307,16.705z M24.336,22.685c1.85-1.346,3.059-3.521,3.059-5.979
			c0-2.474-1.226-4.663-3.098-6.006c4.444,1.57,5.713,5.352,5.903,6.004C30.016,17.314,28.713,21.087,24.336,22.685z"/>
		<path fill="#2EA7E0" d="M14.798,25.129c0,0.193-0.157,0.353-0.351,0.353H8.747c-0.146-0.41-0.532-0.705-0.991-0.705
			c-0.583,0-1.057,0.475-1.057,1.057c0,0.583,0.474,1.057,1.057,1.057c0.459,0,0.846-0.295,0.991-0.704h5.701
			c0.582,0,1.057-0.475,1.057-1.057v-1.058h-0.706V25.129z M7.755,26.186c-0.194,0-0.353-0.159-0.353-0.353s0.158-0.352,0.353-0.352
			s0.351,0.158,0.351,0.352S7.95,26.186,7.755,26.186z"/>
		<path fill="#2EA7E0" d="M10.221,22.336v-0.353H9.517v0.353c0,0.193-0.157,0.352-0.353,0.352H7.692
			c-0.146-0.409-0.533-0.704-0.992-0.704c-0.582,0-1.057,0.475-1.057,1.057s0.475,1.057,1.057,1.057
			c0.459,0,0.846-0.295,0.992-0.704h1.473C9.748,23.393,10.221,22.918,10.221,22.336z M6.7,23.393c-0.194,0-0.352-0.159-0.352-0.353
			s0.157-0.353,0.352-0.353s0.352,0.159,0.352,0.353S6.894,23.393,6.7,23.393z"/>
		<path fill="#2EA7E0" d="M23.289,7.254c0-0.194,0.157-0.353,0.353-0.353h5.7c0.146,0.41,0.532,0.705,0.992,0.705
			c0.583,0,1.057-0.474,1.057-1.057s-0.474-1.057-1.057-1.057c-0.46,0-0.846,0.296-0.992,0.704h-5.7
			c-0.583,0-1.058,0.474-1.058,1.057v1.056h0.705V7.254z M30.333,6.197c0.193,0,0.351,0.159,0.351,0.353
			c0,0.194-0.157,0.352-0.351,0.352c-0.195,0-0.354-0.158-0.354-0.352C29.98,6.356,30.138,6.197,30.333,6.197z"/>
		<path fill="#2EA7E0" d="M28.001,10.231v0.352h0.704v-0.352c0-0.194,0.158-0.353,0.353-0.353h1.474
			c0.146,0.41,0.533,0.705,0.991,0.705c0.582,0,1.057-0.474,1.057-1.056c0-0.583-0.475-1.058-1.057-1.058
			c-0.458,0-0.846,0.295-0.991,0.704h-1.474C28.475,9.174,28.001,9.648,28.001,10.231z M31.523,9.174
			c0.194,0,0.353,0.159,0.353,0.354c0,0.193-0.158,0.351-0.353,0.351c-0.193,0-0.352-0.158-0.352-0.351
			C31.171,9.333,31.33,9.174,31.523,9.174z"/>
		<g>
			<g>
				<path fill="#2EA7E0" d="M24.733,14.874h-1.147c-0.049-0.136-0.104-0.268-0.165-0.397l0.812-0.812
					c0.179-0.178,0.179-0.467,0-0.644l-1.288-1.289c-0.178-0.178-0.466-0.178-0.644,0l-0.812,0.812
					c-0.13-0.061-0.263-0.116-0.397-0.165V11.23c0-0.251-0.204-0.455-0.455-0.455h-1.822c-0.252,0-0.455,0.204-0.455,0.455v1.148
					c-0.248,0.088-1.809,0.86-2.035,0.994l0.463,0.784c0.256-0.15,1.854-0.926,2.142-1c0.201-0.053,0.341-0.234,0.341-0.441v-1.03
					h0.911v1.03c0,0.208,0.14,0.389,0.341,0.441c0.288,0.074,0.563,0.188,0.819,0.339c0.179,0.105,0.407,0.077,0.554-0.071
					l0.729-0.729l0.645,0.644l-0.728,0.728c-0.147,0.148-0.177,0.375-0.071,0.554c0.151,0.256,0.266,0.532,0.34,0.82
					c0.053,0.201,0.232,0.341,0.44,0.342h1.031v0.91h-1.03c-0.207,0-0.389,0.14-0.44,0.342c-0.074,0.288-0.188,0.563-0.34,0.82
					c-0.105,0.178-0.077,0.406,0.07,0.553l0.729,0.729l-0.644,0.645l-0.728-0.729c-0.148-0.146-0.377-0.176-0.555-0.07
					c-0.257,0.15-0.532,0.266-0.819,0.34c-0.202,0.051-0.342,0.232-0.342,0.44v1.03h-0.912v-1.029c0-0.209-0.14-0.39-0.341-0.441
					c-0.287-0.074-0.564-0.188-0.819-0.34c-0.18-0.105-0.407-0.076-0.555,0.07l-0.728,0.729l-0.645-0.644l0.729-0.729
					c0.147-0.146,0.176-0.375,0.07-0.553c-0.151-0.256-0.266-0.533-0.341-0.82c-0.052-0.201-0.233-0.341-0.439-0.342h-3.028v0.912
					h2.691c0.047,0.135,0.103,0.268,0.164,0.396l-0.812,0.812c-0.178,0.178-0.178,0.467,0,0.645l1.288,1.289
					c0.179,0.178,0.466,0.178,0.645,0l0.812-0.813c0.13,0.062,0.263,0.117,0.398,0.165v1.148c0,0.252,0.203,0.455,0.455,0.455h1.822
					l0,0c0.251,0,0.455-0.203,0.455-0.455v-1.148c0.135-0.047,0.268-0.104,0.397-0.164l0.812,0.812c0.178,0.178,0.466,0.178,0.644,0
					l1.288-1.289c0.179-0.178,0.179-0.467,0-0.645l-0.812-0.812c0.062-0.128,0.117-0.262,0.165-0.396h1.148
					c0.252,0,0.455-0.205,0.455-0.456V15.33C25.188,15.078,24.985,14.874,24.733,14.874z"/>
			</g>
		</g>
		<g>
			<g>
				<path fill="#2EA7E0" d="M19.724,14.418c-1.007,0-1.821,0.816-1.821,1.821c0,1.006,0.814,1.822,1.821,1.822
					c1.006,0,1.822-0.816,1.822-1.822C21.546,15.234,20.73,14.418,19.724,14.418z M19.724,17.151c-0.503,0-0.911-0.408-0.911-0.911
					s0.408-0.91,0.911-0.91s0.911,0.407,0.911,0.91S20.227,17.151,19.724,17.151z"/>
			</g>
		</g>
	</g>
	<g>
		<text transform="matrix(1 0 0 1 41.6392 20.6689)" fill="#2EA7E0" font-family="'HelveticaNeue-Bold'" font-size="14.2265">AI-OCT</text>
	</g>
</g>
</svg>
