<?xml version="1.0" encoding="utf-8"?>
<!-- Generator: Adobe Illustrator 16.0.0, SVG Export Plug-In . SVG Version: 6.00 Build 0)  -->
<!DOCTYPE svg PUBLIC "-//W3C//DTD SVG 1.1//EN" "http://www.w3.org/Graphics/SVG/1.1/DTD/svg11.dtd">
<svg version="1.1" id="圖層_1" xmlns="http://www.w3.org/2000/svg" xmlns:xlink="http://www.w3.org/1999/xlink" x="0px" y="0px"
	 width="140.667px" height="90.666px" viewBox="0 0 140.667 90.666" enable-background="new 0 0 140.667 90.666"
	 xml:space="preserve">
<g>
	<text transform="matrix(1 0 0 1 58.6572 70.5718)" fill="#2EA7E0" font-family="'ArialMT'" font-size="9">Main</text>
</g>
<g>
	<path fill="#2EA7E0" d="M72.54,39.557c-3.803,0-6.896-3.095-6.896-6.896c0-3.803,3.093-6.896,6.896-6.896
		c3.802,0,6.896,3.093,6.896,6.896C79.436,36.462,76.342,39.557,72.54,39.557z M72.54,27.156c-3.036,0-5.505,2.469-5.505,5.504
		s2.469,5.504,5.505,5.504c3.035,0,5.504-2.469,5.504-5.504S75.575,27.156,72.54,27.156z"/>
	<path fill="#2EA7E0" d="M80.135,25.992c-2.174,0-3.942-1.769-3.942-3.943c0-2.174,1.769-3.943,3.942-3.943
		c2.175,0,3.943,1.769,3.943,3.943C84.078,24.224,82.31,25.992,80.135,25.992z M80.135,19.498c-1.406,0-2.551,1.145-2.551,2.551
		s1.145,2.552,2.551,2.552c1.408,0,2.553-1.145,2.553-2.552S81.543,19.498,80.135,19.498z"/>
	<path fill="#2EA7E0" d="M55.25,49.137c-1.828,0-3.314-1.487-3.314-3.314c0-1.828,1.486-3.314,3.314-3.314
		c1.827,0,3.314,1.486,3.314,3.314C58.564,47.65,57.077,49.137,55.25,49.137z M55.25,43.9c-1.061,0-1.922,0.862-1.922,1.923
		s0.861,1.922,1.922,1.922s1.923-0.861,1.923-1.922S56.311,43.9,55.25,43.9z"/>
	<path fill="#2EA7E0" d="M71.08,49.198c-1.574,0-2.854-1.28-2.854-2.854s1.279-2.854,2.854-2.854c1.573,0,2.854,1.28,2.854,2.854
		S72.653,49.198,71.08,49.198z M71.08,44.882c-0.807,0-1.463,0.655-1.463,1.462s0.656,1.463,1.463,1.463s1.462-0.656,1.462-1.463
		S71.887,44.882,71.08,44.882z"/>
	<path fill="#2EA7E0" d="M59.203,30.985c-2.018,0-3.659-1.642-3.659-3.659s1.642-3.659,3.659-3.659s3.658,1.641,3.658,3.659
		S61.221,30.985,59.203,30.985z M59.203,25.059c-1.25,0-2.268,1.017-2.268,2.267c0,1.25,1.018,2.268,2.268,2.268
		s2.267-1.017,2.267-2.268C61.47,26.076,60.453,25.059,59.203,25.059z"/>
	
		<rect x="61.946" y="28.427" transform="matrix(0.9615 0.2747 -0.2747 0.9615 10.4828 -16.5945)" fill="#2EA7E0" width="5.065" height="1.391"/>
	
		<rect x="76.713" y="24.11" transform="matrix(0.7613 0.6484 -0.6484 0.7613 35.44 -43.9441)" fill="#2EA7E0" width="1.392" height="4.113"/>
	
		<rect x="61.927" y="33.877" transform="matrix(0.5854 0.8107 -0.8107 0.5854 58.8817 -33.9368)" fill="#2EA7E0" width="1.391" height="13.454"/>
	
		<rect x="70.915" y="38.511" transform="matrix(0.998 0.0625 -0.0625 0.998 2.7197 -4.3925)" fill="#2EA7E0" width="1.391" height="5.577"/>
</g>
</svg>
