<?xml version="1.0" encoding="utf-8"?>
<!-- Generator: Adobe Illustrator 16.0.0, SVG Export Plug-In . SVG Version: 6.00 Build 0)  -->
<!DOCTYPE svg PUBLIC "-//W3C//DTD SVG 1.1//EN" "http://www.w3.org/Graphics/SVG/1.1/DTD/svg11.dtd">
<svg version="1.1" id="圖層_1" xmlns="http://www.w3.org/2000/svg" xmlns:xlink="http://www.w3.org/1999/xlink" x="0px" y="0px"
	 width="140.667px" height="90.666px" viewBox="0 0 140.667 90.666" enable-background="new 0 0 140.667 90.666"
	 xml:space="preserve">
<g>
	<g>
		<text transform="matrix(1 0 0 1 40.6782 70.5562)" fill="#2EA7E0" font-family="'ArialMT'" font-size="9">OCT Suggest</text>
	</g>
	<g>
		<g>
			<g>
				<path fill="#2EA7E0" d="M70.334,17.188h-2.741c-5.676,0.006-10.273,4.605-10.28,10.28v1.152l-3.341,6.056
					c-0.056,0.102-0.086,0.216-0.086,0.331c-0.002,0.039-0.002,0.078,0,0.117c0.031,1.104,0.954,1.972,2.055,1.939
					c0.499,0.028,0.979,0.206,1.372,0.513v2.228c-0.002,0.053-0.002,0.105,0,0.158c0.044,1.47,1.271,2.628,2.742,2.584h4.111
					c0.04,0.001,0.078,0.001,0.116,0c1.104-0.032,1.972-0.953,1.94-2.056v-4.112h-1.372v4.112c0.006,0.041,0.006,0.082,0,0.122
					c-0.033,0.345-0.34,0.597-0.685,0.563h-4.111c-0.057,0.003-0.11,0.003-0.164,0c-0.713-0.045-1.253-0.659-1.208-1.371V37.25
					c0-0.196-0.084-0.383-0.23-0.513c-0.688-0.633-1.577-1.003-2.512-1.044c-0.003,0.001-0.005,0.001-0.008,0.001
					c-0.33,0.035-0.626-0.205-0.661-0.536l3.325-6.031c0.058-0.101,0.086-0.215,0.086-0.332v-1.328
					c0.007-4.918,3.993-8.904,8.91-8.909h2.732c0.044-0.004,0.084-0.004,0.127-0.001c0.346,0.033,0.6,0.341,0.568,0.687v3.427h1.37
					v-3.427c0.002-0.039,0.002-0.078,0-0.117C72.359,18.024,71.438,17.156,70.334,17.188z"/>
			</g>
		</g>
		<g>
			<g>
				<path fill="#2EA7E0" d="M81.985,37.749h-7.538v1.371h7.538c0.04-0.004,0.082-0.004,0.122,0c0.345,0.034,0.598,0.341,0.562,0.685
					V41.1c-0.097,0.409-0.758,2.817-2.741,2.817c-0.378,0-0.685,0.307-0.685,0.685v4.113H66.223v-2.057h-1.372V49.4
					c0,0.378,0.309,0.686,0.687,0.686h14.392l0,0c0.38,0,0.687-0.307,0.687-0.686v-4.172c2.143-0.405,3.164-2.665,3.413-3.915
					c0.009-0.045,0.014-0.091,0.014-0.137v-1.371c0-0.039,0-0.078,0-0.117C84.009,38.585,83.089,37.717,81.985,37.749z"/>
			</g>
		</g>
		<g>
			<g>
				<path fill="#2EA7E0" d="M86.097,25.413H84.37c-0.073-0.204-0.155-0.403-0.25-0.599l1.224-1.222c0.267-0.268,0.267-0.702,0-0.969
					l-1.939-1.939c-0.267-0.268-0.701-0.268-0.968,0l-1.224,1.223c-0.194-0.093-0.396-0.175-0.598-0.248V19.93
					c0-0.379-0.307-0.686-0.687-0.686h-2.741c-0.379,0-0.686,0.307-0.686,0.686v1.729c-0.373,0.131-0.731,0.299-1.073,0.501
					l0.697,1.18c0.385-0.227,0.8-0.398,1.233-0.51c0.302-0.078,0.515-0.351,0.515-0.663v-1.551h1.37v1.551
					c0,0.312,0.211,0.585,0.512,0.664c0.435,0.112,0.85,0.284,1.234,0.511c0.271,0.159,0.611,0.116,0.833-0.105l1.097-1.097
					l0.969,0.968l-1.095,1.096c-0.221,0.221-0.267,0.564-0.107,0.833c0.228,0.386,0.4,0.801,0.512,1.234
					c0.079,0.302,0.351,0.514,0.664,0.514h1.55v1.37h-1.55c-0.312,0-0.584,0.212-0.662,0.514c-0.111,0.433-0.284,0.849-0.513,1.234
					c-0.158,0.269-0.114,0.612,0.106,0.833l1.099,1.097l-0.97,0.969l-1.096-1.097c-0.224-0.221-0.565-0.265-0.835-0.105
					c-0.386,0.227-0.8,0.399-1.234,0.51c-0.302,0.078-0.514,0.352-0.514,0.664v1.551h-1.37v-1.55c0-0.312-0.213-0.585-0.515-0.663
					c-0.432-0.112-0.847-0.284-1.233-0.511c-0.269-0.159-0.612-0.116-0.833,0.105L74.196,32.8l-0.969-0.968l1.096-1.097
					c0.224-0.221,0.266-0.564,0.106-0.833c-0.227-0.385-0.399-0.801-0.513-1.234c-0.078-0.302-0.35-0.514-0.662-0.514h-2.234v1.371
					h1.728c0.073,0.204,0.155,0.403,0.249,0.599l-1.224,1.223c-0.267,0.268-0.267,0.702,0,0.969l1.938,1.939
					c0.269,0.267,0.702,0.267,0.969,0l1.224-1.223c0.195,0.093,0.396,0.176,0.598,0.248v1.729c0,0.378,0.307,0.686,0.686,0.686
					h2.741l0,0c0.38,0,0.687-0.307,0.687-0.686V33.28c0.202-0.072,0.403-0.155,0.598-0.248l1.224,1.222
					c0.267,0.267,0.701,0.267,0.968,0l1.939-1.939c0.267-0.268,0.267-0.702,0-0.969l-1.224-1.223
					c0.093-0.195,0.177-0.395,0.25-0.599h1.727c0.38,0,0.686-0.307,0.686-0.685v-2.742C86.782,25.719,86.477,25.413,86.097,25.413z"
					/>
			</g>
		</g>
		<g>
			<g>
				<path fill="#2EA7E0" d="M78.559,24.727c-1.515,0-2.741,1.228-2.741,2.741c0,1.515,1.227,2.742,2.741,2.742
					c1.513,0,2.742-1.227,2.742-2.742C81.301,25.955,80.073,24.727,78.559,24.727z M78.559,28.839c-0.756,0-1.371-0.614-1.371-1.371
					c0-0.757,0.615-1.371,1.371-1.371c0.757,0,1.37,0.614,1.37,1.371C79.929,28.226,79.315,28.839,78.559,28.839z"/>
			</g>
		</g>
		<g>
			<g>
				<path fill="#2EA7E0" d="M64.166,28.154v0.686h-2.055v-0.686h-1.372v0.686c0,0.019,0,0.038,0,0.057
					c0.016,0.741,0.629,1.329,1.372,1.313h2.055c0.019,0,0.038,0,0.058,0c0.74-0.016,1.329-0.629,1.313-1.371v-0.686H64.166z"/>
			</g>
		</g>
		<g>
			<g>
				<path fill="#2EA7E0" d="M73.075,36.378c-1.136,0-2.055,0.92-2.055,2.056c0,1.135,0.919,2.056,2.055,2.056
					c1.137,0,2.057-0.921,2.057-2.056C75.132,37.299,74.212,36.378,73.075,36.378z M73.075,39.12c-0.378,0-0.685-0.307-0.685-0.685
					c0-0.379,0.307-0.686,0.685-0.686c0.379,0,0.688,0.307,0.688,0.686C73.763,38.813,73.454,39.12,73.075,39.12z"/>
			</g>
		</g>
		<g>
			<g>
				<path fill="#2EA7E0" d="M65.537,32.952c-1.136,0-2.057,0.921-2.057,2.056c0,1.136,0.921,2.057,2.057,2.057
					c1.135,0,2.056-0.921,2.056-2.057C67.593,33.873,66.672,32.952,65.537,32.952z M65.537,35.693c-0.378,0-0.687-0.307-0.687-0.686
					s0.309-0.685,0.687-0.685c0.379,0,0.686,0.306,0.686,0.685S65.916,35.693,65.537,35.693z"/>
			</g>
		</g>
		<g>
			<g>
				<path fill="#2EA7E0" d="M71.706,21.986c-1.137,0-2.057,0.92-2.057,2.056c0,1.136,0.92,2.056,2.057,2.056
					c1.134,0,2.057-0.92,2.057-2.056C73.763,22.906,72.84,21.986,71.706,21.986z M71.706,24.727c-0.38,0-0.686-0.307-0.686-0.686
					c0-0.378,0.306-0.685,0.686-0.685c0.378,0,0.685,0.307,0.685,0.685C72.391,24.42,72.084,24.727,71.706,24.727z"/>
			</g>
		</g>
		<g>
			<g>
				<rect x="68.279" y="28.154" fill="#2EA7E0" width="1.37" height="1.371"/>
			</g>
		</g>
		<g>
			<g>
				<rect x="68.279" y="30.896" fill="#2EA7E0" width="1.37" height="1.371"/>
			</g>
		</g>
		<g>
			<g>
				<rect x="64.851" y="43.917" fill="#2EA7E0" width="1.372" height="1.37"/>
			</g>
		</g>
	</g>
</g>
</svg>
