<?xml version="1.0" encoding="utf-8"?>
<!-- Generator: Adobe Illustrator 16.0.0, SVG Export Plug-In . SVG Version: 6.00 Build 0)  -->
<!DOCTYPE svg PUBLIC "-//W3C//DTD SVG 1.1//EN" "http://www.w3.org/Graphics/SVG/1.1/DTD/svg11.dtd">
<svg version="1.1" id="圖層_1" xmlns="http://www.w3.org/2000/svg" xmlns:xlink="http://www.w3.org/1999/xlink" x="0px" y="0px"
	 width="140.667px" height="90.666px" viewBox="0 0 140.667 90.666" enable-background="new 0 0 140.667 90.666"
	 xml:space="preserve">
<g>
	<text transform="matrix(1 0 0 1 53.6953 70.2378)" fill="#2EA7E0" font-family="'ArialMT'" font-size="9">Tutorial</text>
</g>
<g>
	<path fill="#2EA7E0" d="M84.54,42.537H54.157c-1.471,0-2.668-1.197-2.668-2.668V22.012c0-1.472,1.197-2.668,2.668-2.668H84.54
		c1.471,0,2.668,1.196,2.668,2.668v17.857C87.208,41.34,86.01,42.537,84.54,42.537z M54.157,20.735
		c-0.703,0-1.275,0.573-1.275,1.277v17.857c0,0.704,0.572,1.277,1.275,1.277H84.54c0.704,0,1.276-0.573,1.276-1.277V22.012
		c0-0.704-0.572-1.277-1.276-1.277H54.157z"/>
	<path fill="#2EA7E0" d="M82.729,40.515H55.968c-1.342,0-2.433-1.033-2.433-2.303V23.668c0-1.269,1.091-2.302,2.433-2.302h26.761
		c1.342,0,2.433,1.033,2.433,2.302v14.543C85.162,39.482,84.071,40.515,82.729,40.515z M55.968,22.758
		c-0.574,0-1.042,0.408-1.042,0.91v14.543c0,0.502,0.468,0.911,1.042,0.911h26.761c0.574,0,1.041-0.408,1.041-0.911V23.668
		c0-0.502-0.467-0.91-1.041-0.91H55.968z"/>
	<polygon fill="#2EA7E0" points="68.536,25.026 68.536,34.768 74.902,30.275 	"/>
	<rect x="49.633" y="45.9" fill="#2EA7E0" width="41.4" height="1.392"/>
	<rect x="56.36" y="25.548" fill="#2EA7E0" width="6.029" height="0.696"/>
	<rect x="56.36" y="27.636" fill="#2EA7E0" width="6.029" height="0.695"/>
	<rect x="56.36" y="29.723" fill="#2EA7E0" width="6.029" height="0.696"/>
	<rect x="56.36" y="31.811" fill="#2EA7E0" width="6.029" height="0.696"/>
	<rect x="56.36" y="33.898" fill="#2EA7E0" width="6.029" height="0.695"/>
</g>
</svg>
